<svg xmlns="http://www.w3.org/2000/svg" viewBox="0 0 96 120" x="0px" y="0px"><g data-name="1"><path d="M87.4,33.37a1.49,1.49,0,0,1-2.07.47l-2.6-1.64A38.94,38.94,0,1,1,31.36,10.65a1.5,1.5,0,0,1,1.17,2.76,35.93,35.93,0,1,0,47.41,19.9l-.66,3.08a1.5,1.5,0,0,1-1.47,1.18,1.63,1.63,0,0,1-.31,0,1.49,1.49,0,0,1-1.15-1.78L78,28.06A1.49,1.49,0,0,1,78.88,27a1.52,1.52,0,0,1,1.39.11l6.66,4.21A1.49,1.49,0,0,1,87.4,33.37ZM75.09,46.53A28.58,28.58,0,1,1,46.52,18,28.61,28.61,0,0,1,75.09,46.53ZM45,29.17a1.5,1.5,0,0,0,3,0V26.53a1.5,1.5,0,0,0-3,0ZM30.66,46.53a1.5,1.5,0,0,0-1.5-1.5H26.52a1.5,1.5,0,1,0,0,3h2.64A1.5,1.5,0,0,0,30.66,46.53ZM35.3,57.74a1.51,1.51,0,0,0-2.12,0l-1.87,1.87a1.51,1.51,0,0,0,0,2.12,1.53,1.53,0,0,0,1.06.44,1.49,1.49,0,0,0,1.06-.44l1.87-1.87A1.49,1.49,0,0,0,35.3,57.74Zm0-24.55-1.87-1.86a1.49,1.49,0,0,0-2.12,0,1.51,1.51,0,0,0,0,2.12l1.87,1.87a1.5,1.5,0,0,0,1.06.43,1.47,1.47,0,0,0,1.06-.44A1.49,1.49,0,0,0,35.3,33.19ZM48,63.89a1.5,1.5,0,0,0-3,0v2.64a1.5,1.5,0,0,0,3,0Zm5-12.14L48,46V35.25a1.5,1.5,0,0,0-3,0V46.53a1.52,1.52,0,0,0,.36,1l5.39,6.21a1.48,1.48,0,0,0,1.13.51A1.49,1.49,0,0,0,53,51.75Zm8.69,7.86-1.87-1.87a1.51,1.51,0,0,0-2.12,0,1.49,1.49,0,0,0,0,2.12l1.87,1.87a1.49,1.49,0,0,0,1.06.44,1.53,1.53,0,0,0,1.06-.44A1.51,1.51,0,0,0,61.72,59.61Zm0-28.28a1.49,1.49,0,0,0-2.12,0l-1.87,1.86a1.5,1.5,0,0,0,1.06,2.56,1.47,1.47,0,0,0,1.06-.44l1.87-1.86A1.51,1.51,0,0,0,61.72,31.33ZM68,46.53a1.5,1.5,0,0,0-1.5-1.5H63.87a1.5,1.5,0,0,0,0,3h2.65A1.5,1.5,0,0,0,68,46.53Z"/></g></svg>