<svg xmlns:dc="http://purl.org/dc/elements/1.1/" xmlns:cc="http://creativecommons.org/ns#" xmlns:rdf="http://www.w3.org/1999/02/22-rdf-syntax-ns#" xmlns:svg="http://www.w3.org/2000/svg" xmlns="http://www.w3.org/2000/svg" xmlns:sodipodi="http://sodipodi.sourceforge.net/DTD/sodipodi-0.dtd" xmlns:inkscape="http://www.inkscape.org/namespaces/inkscape" viewBox="0 0 8.4666667 10.583333625" version="1.1" x="0px" y="0px"><svg:g><svg:path style="color:#000000;font-style:normal;font-variant:normal;font-weight:normal;font-stretch:normal;font-size:medium;line-height:normal;font-family:sans-serif;font-variant-ligatures:normal;font-variant-position:normal;font-variant-caps:normal;font-variant-numeric:normal;font-variant-alternates:normal;font-feature-settings:normal;text-indent:0;text-align:start;text-decoration:none;text-decoration-line:none;text-decoration-style:solid;text-decoration-color:#000000;letter-spacing:normal;word-spacing:normal;text-transform:none;writing-mode:lr-tb;direction:ltr;text-orientation:mixed;dominant-baseline:auto;baseline-shift:baseline;text-anchor:start;white-space:normal;shape-padding:0;clip-rule:nonzero;display:inline;overflow:visible;visibility:visible;opacity:1;isolation:auto;mix-blend-mode:normal;color-interpolation:sRGB;color-interpolation-filters:linearRGB;solid-color:#000000;solid-opacity:1;vector-effect:none;fill:#000000;fill-opacity:1;fill-rule:nonzero;stroke:none;stroke-width:0.5291667;stroke-linecap:round;stroke-linejoin:round;stroke-miterlimit:4;stroke-dasharray:none;stroke-dashoffset:0;stroke-opacity:1;color-rendering:auto;image-rendering:auto;shape-rendering:auto;text-rendering:auto;enable-background:accumulate" d="m 6.1085011,0.09663437 c -1.2990063,0 -2.3574772,1.05847103 -2.3574772,2.35748003 0,1.299006 1.0584709,2.357477 2.3574772,2.357477 1.2990089,0 2.3574798,-1.058471 2.3574798,-2.357477 0,-1.299009 -1.0584709,-2.35748003 -2.3574798,-2.35748003 z m 0,1.01957703 c 0.6194742,0 1.1270641,0.50759 1.1270641,1.127062 0,0.39793 -0.2621307,0.712361 -0.4904105,0.98857 -0.2282799,0.276212 -0.4547526,0.487826 -0.4547526,0.487826 a 0.26460987,0.26460987 0 0 1 -0.361733,0 c 0,0 -0.2264728,-0.211614 -0.4547526,-0.487826 -0.2282799,-0.276209 -0.4924769,-0.59064 -0.4924769,-0.98857 0,-0.619472 0.5075899,-1.127062 1.1270615,-1.127062 z m 0,0.529683 c -0.3334888,0 -0.5973789,0.26389 -0.5973789,0.597379 0,0.07855 0.1679442,0.406421 0.3710384,0.652158 0.1130406,0.136779 0.1478227,0.164838 0.2263405,0.244427 0.078555,-0.07958 0.1149138,-0.107101 0.2284095,-0.244427 0.2030941,-0.245737 0.3710384,-0.573609 0.3710384,-0.652158 0,-0.333489 -0.2659565,-0.597379 -0.5994479,-0.597379 z m 5.185e-4,0.210838 a 0.32188808,0.32188808 0 0 1 0.3219424,0.321945 0.32188808,0.32188808 0 0 1 -0.3219424,0.321945 0.32188808,0.32188808 0 0 1 -0.321945,-0.321945 0.32188808,0.32188808 0 0 1 0.321945,-0.321945 z m -4.9650728,0.905889 a 0.26460981,0.26460981 0 0 0 -0.24649645,0.166399 l -0.87849867,2.197282 a 0.26460981,0.26460981 0 0 0 0.24598047,0.361217 H 6.8526417 a 0.26460981,0.26460981 0 0 0 0.2557991,-0.330213 c -0.3123618,0.11662 -0.6484461,0.183452 -0.9999397,0.183452 -1.4822832,0 -2.7141355,-1.135066 -2.8695915,-2.578137 z m -0.67799482,3.254065 v 2.089795 a 0.26460981,0.26460981 0 0 0 0.26561785,0.263549 H 4.3158458 V 6.4580034 C 4.3157135,6.3219814 4.418729,6.2080254 4.554074,6.1944524 l 5.186e-4,-5.16e-4 c 0.00896,-2.65e-4 0.017928,-8e-6 0.026871,5.16e-4 H 5.559697 c 0.1453145,5.82e-4 0.2630223,0.118239 0.2635515,0.263551 v 1.912027 H 6.386004 a 0.26460981,0.26460981 0 0 0 0.2656178,-0.263549 v -2.089795 z m 1.11155952,0.177766 c 0.00844,-5.24e-4 0.016883,-5.24e-4 0.025323,0 H 3.610464 c 0.1453118,5.82e-4 0.2630196,0.118239 0.2635488,0.263551 v 1.103291 c -5.821e-4,0.145315 -0.118237,0.26302 -0.2635488,0.263549 H 1.6028348 C 1.4575203,7.8242644 1.3398125,7.7066094 1.3392833,7.5612944 V 6.4580034 C 1.3391511,6.3219814 1.4421666,6.2080254 1.5775115,6.1944524 Z M 1.86845,6.7236184 v 0.572058 h 1.4763962 v -0.572058 z m 2.9765625,0 v 1.646412 h 0.4490693 v -1.646412 z"/></svg:g><text x="0" y="23.4666669" fill="#000000" font-size="5px" font-weight="bold" font-family="'Helvetica Neue', Helvetica, Arial-Unicode, Arial, Sans-serif">Created by Larea</text><text x="0" y="28.4666669" fill="#000000" font-size="5px" font-weight="bold" font-family="'Helvetica Neue', Helvetica, Arial-Unicode, Arial, Sans-serif">from the Noun Project</text></svg>