<svg xmlns="http://www.w3.org/2000/svg" xmlns:xlink="http://www.w3.org/1999/xlink" width="1080" zoomAndPan="magnify" viewBox="0 0 810 1439.999935" height="1920" preserveAspectRatio="xMidYMid meet" version="1.0"><defs><clipPath id="96899ed85b"><path d="M 357 1333 L 673 1333 L 673 1380.257812 L 357 1380.257812 Z M 357 1333 " clip-rule="nonzero"/></clipPath></defs><path fill="#38b6ff" d="M 422.691406 397.9375 C 422.691406 348.828125 383.101562 308.855469 334.5625 308.855469 L 188.761719 308.855469 L 188.761719 139.261719 L 400.800781 139.261719 C 514.054688 139.261719 606.179688 232.910156 606.179688 348.066406 L 606.179688 568.480469 L 422.691406 568.480469 Z M 422.691406 397.9375 " fill-opacity="1" fill-rule="nonzero"/><g clip-path="url(#96899ed85b)"><path fill="#38b6ff" d="M 635.304688 1333.277344 L 672.039062 1333.277344 L 672.039062 1382.003906 L 357.023438 1382.003906 L 357.023438 1333.277344 L 393.570312 1333.277344 C 393.761719 1333.277344 393.949219 1333.277344 394.140625 1333.277344 L 634.734375 1333.277344 C 634.921875 1333.277344 635.113281 1333.277344 635.304688 1333.277344 Z M 635.304688 1333.277344 " fill-opacity="1" fill-rule="nonzero"/></g><path fill="#38b6ff" d="M 394.140625 674.503906 L 356.832031 674.503906 L 356.832031 625.773438 L 672.039062 625.773438 L 672.039062 674.503906 Z M 394.140625 674.503906 " fill-opacity="1" fill-rule="nonzero"/><path fill="#38b6ff" d="M 84.644531 60.269531 L 131.660156 60.269531 L 131.660156 380.996094 L 84.644531 380.996094 Z M 84.644531 60.269531 " fill-opacity="1" fill-rule="nonzero"/><path fill="#38b6ff" d="M 606.179688 731.796875 L 606.179688 1275.984375 L 422.691406 1275.984375 L 422.691406 731.796875 Z M 606.179688 731.796875 " fill-opacity="1" fill-rule="nonzero"/></svg>