<svg xmlns="http://www.w3.org/2000/svg" xmlns:xlink="http://www.w3.org/1999/xlink" width="500" zoomAndPan="magnify" viewBox="0 0 375 374.999991" height="500" preserveAspectRatio="xMidYMid meet" version="1.0"><defs><clipPath id="c0011d4e7a"><path d="M 39 25.636719 L 177.996094 25.636719 L 177.996094 46 L 39 46 Z M 39 25.636719 " clip-rule="nonzero"/></clipPath><clipPath id="07330794de"><path d="M 39 333 L 177.996094 333 L 177.996094 349.636719 L 39 349.636719 Z M 39 333 " clip-rule="nonzero"/></clipPath></defs><g clip-path="url(#c0011d4e7a)"><path fill="#38b6ff" d="M 161.222656 45.929688 L 177.242188 45.929688 L 177.242188 24.683594 L 39.882812 24.683594 L 39.882812 45.929688 L 55.816406 45.929688 C 55.898438 45.929688 55.984375 45.929688 56.066406 45.929688 L 160.972656 45.929688 C 161.058594 45.929688 161.140625 45.929688 161.222656 45.929688 Z M 161.222656 45.929688 " fill-opacity="1" fill-rule="nonzero"/></g><g clip-path="url(#07330794de)"><path fill="#38b6ff" d="M 56.066406 333.183594 L 39.796875 333.183594 L 39.796875 354.429688 L 177.242188 354.429688 L 177.242188 333.183594 Z M 56.066406 333.183594 " fill-opacity="1" fill-rule="nonzero"/></g><path fill="#38b6ff" d="M 148.523438 308.203125 L 148.523438 70.914062 L 68.515625 70.914062 L 68.515625 308.203125 Z M 148.523438 308.203125 " fill-opacity="1" fill-rule="nonzero"/></svg>