<svg xmlns="http://www.w3.org/2000/svg" xmlns:xlink="http://www.w3.org/1999/xlink" version="1.0" x="0px" y="0px" viewBox="0 0 100 125" enable-background="new 0 0 100 100" xml:space="preserve"><path d="M10,40v43.333C10,86.999,13,90,16.667,90h6.664V70L20,63.333L23.33,50h6.664l3.336,13.333L29.997,70l-0.003,20h18.34V71.003  c-3.933-1.879-6.667-5.856-6.667-10.502c0-4.645,2.734-8.623,6.667-10.501v10.501c0,2.761,2.24,5,5,5c2.761,0,4.994-2.239,4.994-5  V50c3.932,1.878,6.666,5.856,6.666,10.501c0,4.646-2.734,8.623-6.666,10.502V90h15.006V56.667L76.667,50L80,56.667V90h3.333  C86.999,90,90,86.999,90,83.333V40H10z"/><path d="M90,33.333V30c0-3.666-3.001-6.667-6.667-6.667H66.667v-6.667C66.667,12.985,63.682,10,60,10H40  c-3.682,0-6.667,2.985-6.667,6.667v6.667H16.667C13,23.333,10,26.334,10,30v3.333H90z M40,16.667h20v6.667H40V16.667z"/></svg>